<svg xmlns="http://www.w3.org/2000/svg" viewBox="0 0 383.83 411.79"><title>main-image</title><g style="isolation:isolate"><g id="OBJECTS"><path d="M437,227.56A175.91,175.91,0,1,1,261.13,51.67,175.89,175.89,0,0,1,437,227.56Z" transform="translate(-66.95 -51.67)" style="fill:#efefff"/><path d="M275.3,42.46" transform="translate(-66.95 -51.67)" style="fill:none"/><path d="M275.3,400.14a151.27,151.27,0,0,1-33.91-2.07c-2.79-.52-5.57-1.12-8.36-1.69s-5.51-1.44-8.26-2.16-5.42-1.73-8.13-2.61-5.3-2.07-7.95-3.11-5.16-2.41-7.72-3.63-5-2.65-7.51-4-4.89-2.88-7.28-4.41-4.77-3.06-7.09-4.68a200.31,200.31,0,0,1-26.3-21.48A150.94,150.94,0,0,1,131.18,324a159,159,0,0,1-15.49-30.42,169.32,169.32,0,0,1-10.43-66.91h.33c1.11,22.53,5.29,44.81,13.44,65.63A176.08,176.08,0,0,0,154.11,349a138.16,138.16,0,0,0,25.59,21.86c1.13.83,2.38,1.48,3.57,2.23l3.62,2.17c2.45,1.37,5,2.63,7.45,3.94s5.09,2.37,7.62,3.56l7.78,3.17,7.89,2.88,8,2.58c2.7.74,5.38,1.53,8.09,2.24s5.44,1.31,8.18,1.9a223.47,223.47,0,0,0,33.42,4.29Z" transform="translate(-66.95 -51.67)" style="fill:#efefff"/><path d="M445.17,226.63" transform="translate(-66.95 -51.67)" style="fill:none"/><path d="M154.23,86.92a1.37,1.37,0,1,1,1.77.76A1.37,1.37,0,0,1,154.23,86.92Z" transform="translate(-66.95 -51.67)" style="fill:#b2aaf2"/><path d="M382.48,159.89a1.37,1.37,0,1,1,1.77.76A1.36,1.36,0,0,1,382.48,159.89Z" transform="translate(-66.95 -51.67)" style="fill:#b2aaf2"/><path d="M126.41,159.89a1.36,1.36,0,1,1,1.77.76A1.36,1.36,0,0,1,126.41,159.89Z" transform="translate(-66.95 -51.67)" style="fill:#b2aaf2"/><path d="M344.87,85.39a1.36,1.36,0,1,1,1.77.76A1.36,1.36,0,0,1,344.87,85.39Z" transform="translate(-66.95 -51.67)" style="fill:#b2aaf2"/><path d="M133.84,271.3a1.36,1.36,0,1,1,1.77.76A1.36,1.36,0,0,1,133.84,271.3Z" transform="translate(-66.95 -51.67)" style="fill:#b2aaf2"/><path d="M408.4,248.79a1.36,1.36,0,1,1,1.77.77A1.36,1.36,0,0,1,408.4,248.79Z" transform="translate(-66.95 -51.67)" style="fill:#b2aaf2"/><path d="M229.77,78.71a.5.5,0,0,1-.5-.5V72.74a.5.5,0,0,1,.5-.5.51.51,0,0,1,.5.5v5.47A.51.51,0,0,1,229.77,78.71Z" transform="translate(-66.95 -51.67)" style="fill:#b2aaf2"/><path d="M232.5,76H227a.51.51,0,0,1-.5-.5.5.5,0,0,1,.5-.5h5.47a.5.5,0,0,1,.5.5A.51.51,0,0,1,232.5,76Z" transform="translate(-66.95 -51.67)" style="fill:#b2aaf2"/><path d="M415.21,205.93a.5.5,0,0,1-.5-.5V200a.5.5,0,1,1,1,0v5.46A.5.5,0,0,1,415.21,205.93Z" transform="translate(-66.95 -51.67)" style="fill:#b2aaf2"/><path d="M417.94,203.2h-5.46a.5.5,0,0,1-.5-.5.5.5,0,0,1,.5-.5h5.46a.5.5,0,0,1,.5.5A.5.5,0,0,1,417.94,203.2Z" transform="translate(-66.95 -51.67)" style="fill:#b2aaf2"/><path d="M386.58,304.77a.5.5,0,0,1-.5-.5V298.8a.5.5,0,0,1,1,0v5.47A.5.5,0,0,1,386.58,304.77Z" transform="translate(-66.95 -51.67)" style="fill:#b2aaf2"/><path d="M389.31,302h-5.46a.5.5,0,0,1-.5-.5.5.5,0,0,1,.5-.5h5.46a.5.5,0,0,1,.5.5A.5.5,0,0,1,389.31,302Z" transform="translate(-66.95 -51.67)" style="fill:#b2aaf2"/><path d="M92.66,215.17a.5.5,0,0,1-.5-.5v-5.46a.5.5,0,0,1,1,0v5.46A.5.5,0,0,1,92.66,215.17Z" transform="translate(-66.95 -51.67)" style="fill:#b2aaf2"/><path d="M95.39,212.44H89.93a.5.5,0,0,1,0-1h5.46a.5.5,0,0,1,0,1Z" transform="translate(-66.95 -51.67)" style="fill:#b2aaf2"/><path d="M362.88,407.83c0,2.55-49.47,4.61-110.49,4.61s-110.48-2.06-110.48-4.61,49.46-4.61,110.48-4.61S362.88,405.29,362.88,407.83Z" transform="translate(-66.95 -51.67)" style="fill:#b0affd;opacity:0.4;mix-blend-mode:multiply"/><path d="M361,401.09c.05.08.25-6.42,10-12.24,9.92-6.19,30.55-4.14,33.5-10.54,3.09-6.85-10-5.93-15.31-11.39s-7.16-8.11.72-9.25,12.56-1.41,12.88-7.85,12.94-2.68,19.59-7.09c6.86-4.4,3.6-11-8.92-11.29-12.32,0-12.65-2.06-9-3.76s14.51-4.36,10.14-7.94-11.49-1-7.63-5,12.56-6.59,8.63-11.4-14.71-5-21.48,6.69S385.29,325,379.3,326s-11-5.5-18.23-3.3-6.22,9.11-2.24,13.82,10.79,14,6.21,17.79c-4.42,3.79-9.2-2.41-15.29-3.82-6.76-1.55-14.83,3.87-8.92,13.56,6.16,9.57,16,17.38,15.11,38.68Q358.46,401.84,361,401.09Z" transform="translate(-66.95 -51.67)" style="fill:#d2d2ff"/><path d="M346.36,356.26a.37.37,0,0,1,.52,0c.13.12,12.5,12.15,16.87,26.65.46-1.34.92-2.65,1.38-3.95l0-.05a283.26,283.26,0,0,1,13.78-32.32,145.19,145.19,0,0,0-18.55-20.18.37.37,0,0,1,.48-.55,146.23,146.23,0,0,1,18.44,20c.69-1.36,1.38-2.67,2.06-4a.37.37,0,0,1,.17-.31c3.24-6.06,6.41-11.31,9.37-15.81a.34.34,0,0,1,.16-.29l0,0c10.41-15.76,18.28-22.3,18.43-22.42a.35.35,0,0,1,.51.05.37.37,0,0,1-.05.52c-.15.12-7.58,6.29-17.54,21.13a41.79,41.79,0,0,1,19.61-4.11.36.36,0,0,1,.34.39.37.37,0,0,1-.39.34c-.11,0-10.81-.73-20.41,4.66-2.87,4.36-5.94,9.43-9.09,15.26,17.46-4.88,35.94-3.42,36.12-3.41a.36.36,0,0,1,.34.4.37.37,0,0,1-.4.33c-.19,0-19-1.51-36.54,3.58a274.5,274.5,0,0,0-15.95,36.29c12.3-4.08,31.3-3.1,31.5-3.09a.36.36,0,0,1,.34.38.37.37,0,0,1-.38.35c-.2,0-19.65-1-31.78,3.24-2.49,7-4.92,14.55-7.23,22.7a.36.36,0,0,1-.41.26h0a.37.37,0,0,1-.25-.45c1.77-6.27,3.61-12.17,5.51-17.75-4-14.75-16.84-27.21-17-27.34A.36.36,0,0,1,346.36,356.26Z" transform="translate(-66.95 -51.67)" style="fill:#d2d2ff;opacity:0.5;mix-blend-mode:multiply"/><path d="M160.67,314.89c1.57-51.92-23.42-103.33-65.21-134.17l.83-1.12c42.15,31.11,67.35,83,65.77,135.33Z" transform="translate(-66.95 -51.67)" style="fill:#d2d2ff"/><path d="M104.44,187A30.66,30.66,0,0,0,88.8,172.49c-1.64-.67-3.58-1.18-5.15-.33a2,2,0,0,0-1,1,2.57,2.57,0,0,0,.6,2.19c2.41,3.42,6.39,5.34,10.32,6.75s6.69,3,10.85,4.84" transform="translate(-66.95 -51.67)" style="fill:#d2d2ff"/><path d="M115.05,197.26a30.65,30.65,0,0,0-20.1-7.1c-1.78,0-3.76.33-4.86,1.73a2,2,0,0,0-.49,1.35A2.54,2.54,0,0,0,91,195c3.56,2.18,8,2.37,12.15,2.1s7.32.09,11.88.15" transform="translate(-66.95 -51.67)" style="fill:#d2d2ff"/><path d="M127.68,211.68a30.68,30.68,0,0,0-19.08-9.5c-1.77-.18-3.78-.13-5,1.13a1.94,1.94,0,0,0-.65,1.27,2.57,2.57,0,0,0,1.2,1.94c3.26,2.6,7.63,3.32,11.79,3.57s7.26,1,11.78,1.59" transform="translate(-66.95 -51.67)" style="fill:#d2d2ff"/><path d="M138.05,227.29a30.63,30.63,0,0,0-19.08-9.5c-1.77-.18-3.77-.13-5,1.12a2,2,0,0,0-.65,1.28,2.57,2.57,0,0,0,1.2,1.94c3.27,2.6,7.63,3.32,11.8,3.57s7.25,1,11.77,1.59" transform="translate(-66.95 -51.67)" style="fill:#d2d2ff"/><path d="M149,249.6a30.58,30.58,0,0,0-18-11.43c-1.74-.36-3.74-.52-5.13.6a2,2,0,0,0-.77,1.2,2.53,2.53,0,0,0,1,2.05c3,2.92,7.24,4.1,11.36,4.77s7.12,1.73,11.54,2.81" transform="translate(-66.95 -51.67)" style="fill:#d2d2ff"/><path d="M155.39,266.56a32.76,32.76,0,0,0-16.76-12.3c-1.69-.55-3.65-1-5.12-.19a1.63,1.63,0,0,0-.88.93,2.18,2.18,0,0,0,.79,1.9c2.68,2.92,6.79,4.51,10.8,5.66s6.88,2.47,11.17,4" transform="translate(-66.95 -51.67)" style="fill:#d2d2ff"/><path d="M119.61,202.23a33.15,33.15,0,0,0,.9-22.31c-.56-1.8-1.43-3.73-3.1-4.48a2,2,0,0,0-1.45-.13,2.55,2.55,0,0,0-1.29,1.92c-1,4.2.08,8.73,1.57,12.9s2.08,7.46,3.37,12.1" transform="translate(-66.95 -51.67)" style="fill:#d2d2ff"/><path d="M129,213.71a33.22,33.22,0,0,0,6.2-21.46c-.11-1.88-.5-4-2-5.08a2,2,0,0,0-1.37-.48c-.78.09-1.33.83-1.71,1.56-2,3.82-2,8.5-1.56,12.89s.24,7.75.39,12.57" transform="translate(-66.95 -51.67)" style="fill:#d2d2ff"/><path d="M139.36,230a33.18,33.18,0,0,0,10.37-19.77c.26-1.87.3-4-.89-5.38a2,2,0,0,0-1.25-.74,2.55,2.55,0,0,0-2,1.18c-2.75,3.35-3.67,7.93-4.11,12.33s-1.31,7.63-2.13,12.38" transform="translate(-66.95 -51.67)" style="fill:#d2d2ff"/><path d="M150.53,251.94a33.13,33.13,0,0,0,5.72-21.58c-.16-1.88-.59-4-2.06-5a2,2,0,0,0-1.38-.45c-.78.11-1.31.86-1.68,1.59-1.93,3.88-1.82,8.55-1.27,12.93s.41,7.74.67,12.55" transform="translate(-66.95 -51.67)" style="fill:#d2d2ff"/><path d="M155.92,268.86a33.17,33.17,0,0,0,14.82-16.69c.71-1.75,1.26-3.8.43-5.44a2,2,0,0,0-1-1,2.55,2.55,0,0,0-2.21.67c-3.48,2.59-5.48,6.81-7,11s-3.12,7.09-5.05,11.5" transform="translate(-66.95 -51.67)" style="fill:#d2d2ff"/><path d="M347.53,327.51c-11.22-50.71,3.74-105.88,39.05-144l-1-.95c-35.62,38.43-50.71,94.07-39.39,145.23Z" transform="translate(-66.95 -51.67)" style="fill:#d2d2ff"/><path d="M378.93,191.37a30.59,30.59,0,0,1,12.66-17.15c1.49-1,3.3-1.84,5-1.3a2,2,0,0,1,1.16.85,2.53,2.53,0,0,1-.18,2.26c-1.73,3.81-5.28,6.44-8.88,8.55s-6,4.18-9.75,6.79" transform="translate(-66.95 -51.67)" style="fill:#d2d2ff"/><path d="M370.42,203.44a30.6,30.6,0,0,1,18.43-10.72c1.75-.3,3.75-.38,5.09.79a2,2,0,0,1,.73,1.24,2.54,2.54,0,0,1-1.06,2c-3.1,2.81-7.4,3.81-11.54,4.33s-7.18,1.46-11.65,2.36" transform="translate(-66.95 -51.67)" style="fill:#d2d2ff"/><path d="M360.7,220a30.62,30.62,0,0,1,17-12.9c1.7-.51,3.68-.83,5.15.17a2,2,0,0,1,.88,1.13,2.58,2.58,0,0,1-.81,2.13c-2.73,3.16-6.88,4.68-10.93,5.7s-7,2.32-11.27,3.77" transform="translate(-66.95 -51.67)" style="fill:#d2d2ff"/><path d="M353.42,237.23a30.65,30.65,0,0,1,17-12.89c1.7-.51,3.68-.83,5.15.17a2,2,0,0,1,.88,1.13,2.55,2.55,0,0,1-.81,2.12c-2.73,3.17-6.88,4.69-10.93,5.71s-6.95,2.32-11.27,3.76" transform="translate(-66.95 -51.67)" style="fill:#d2d2ff"/><path d="M346.81,261.2a30.59,30.59,0,0,1,15.55-14.59c1.64-.68,3.57-1.2,5.14-.37a2,2,0,0,1,1,1,2.56,2.56,0,0,1-.59,2.2c-2.38,3.43-6.35,5.37-10.27,6.81s-6.67,3-10.82,4.91" transform="translate(-66.95 -51.67)" style="fill:#d2d2ff"/><path d="M343.71,279a32.69,32.69,0,0,1,14.17-15.2c1.55-.86,3.4-1.62,5-1.14a1.64,1.64,0,0,1,1,.75,2.19,2.19,0,0,1-.42,2c-2.09,3.37-5.83,5.7-9.56,7.58s-6.3,3.7-10.22,6" transform="translate(-66.95 -51.67)" style="fill:#d2d2ff"/><path d="M366.86,209.18a33.21,33.21,0,0,1-5-21.76c.21-1.87.71-3.93,2.22-5a1.93,1.93,0,0,1,1.39-.4c.78.12,1.28.9,1.62,1.64,1.82,3.93,1.56,8.6.87,13s-.65,7.72-1.06,12.53" transform="translate(-66.95 -51.67)" style="fill:#d2d2ff"/><path d="M359.74,222.21a33.16,33.16,0,0,1-10.09-19.92c-.24-1.87-.25-4,1-5.37a2,2,0,0,1,1.26-.72,2.53,2.53,0,0,1,2,1.21c2.7,3.38,3.56,8,3.94,12.38s1.21,7.66,2,12.42" transform="translate(-66.95 -51.67)" style="fill:#d2d2ff"/><path d="M352.63,240.1a33.14,33.14,0,0,1-13.87-17.49c-.61-1.79-1-3.86-.13-5.45a1.93,1.93,0,0,1,1.09-1,2.53,2.53,0,0,1,2.17.79c3.33,2.77,5.09,7.1,6.34,11.35s2.71,7.25,4.4,11.76" transform="translate(-66.95 -51.67)" style="fill:#d2d2ff"/><path d="M345.76,263.78a33.2,33.2,0,0,1-9.65-20.14c-.19-1.87-.16-4,1.09-5.34a1.91,1.91,0,0,1,1.27-.69,2.5,2.5,0,0,1,1.94,1.25c2.63,3.44,3.39,8,3.66,12.47s1,7.67,1.69,12.45" transform="translate(-66.95 -51.67)" style="fill:#d2d2ff"/><path d="M343.62,281.41a33.21,33.21,0,0,1-17.68-13.64c-1-1.59-1.94-3.5-1.44-5.26a2,2,0,0,1,.83-1.19,2.51,2.51,0,0,1,2.3.24c3.89,1.89,6.64,5.67,8.88,9.49s4.38,6.38,7.11,10.36" transform="translate(-66.95 -51.67)" style="fill:#d2d2ff"/><path d="M323.92,364.68a31,31,0,0,1,23.92-8.08c5.84.59,12.22,3.71,13.5,9.45.62,2.73.4,6.35,3,7.42s5-1.55,7.56-2.43c4.33-1.45,9.26,3.5,7.8,7.81-.66,2-2.32,3.68-2.19,5.75.19,2.81,3.67,4.28,6.46,3.85s5.25-2.07,8-2.77,6.28,0,7.24,2.66c.86,2.38-.63,5.58,1.24,7.28a5.16,5.16,0,0,0,3,1c23.68,2.24,49.77,6.49,47.12,10.7-.72,1.15-2.58.79-3.94.76-50.41-.79-95.74-.8-146.6-.77" transform="translate(-66.95 -51.67)" style="fill:#b2aaf2"/><path d="M153.92,406.71c0,.08-.25-6.42-10-12.23-9.92-6.2-30.55-4.15-33.5-10.54-3.1-6.85,10-5.94,15.3-11.39s7.16-8.11-.71-9.25-12.56-1.42-12.88-7.85-12.94-2.68-19.6-7.09c-6.86-4.4-3.59-11,8.93-11.3,12.31,0,12.65-2.05,9-3.76S96,329,100.34,325.37s11.48-1,7.63-5S95.4,313.79,99.34,309s14.71-5,21.48,6.69,8.82,14.91,14.81,15.9c5.84,1.05,11-5.49,18.22-3.3s6.22,9.11,2.25,13.83-10.79,14-6.21,17.79c4.41,3.79,9.2-2.42,15.29-3.82,6.76-1.56,14.83,3.86,8.92,13.55-6.17,9.57-15.28,12.72-14.35,34C158.07,403.09,155.62,407.22,153.92,406.71Z" transform="translate(-66.95 -51.67)" style="fill:#d2d2ff"/><path d="M168.56,361.88a.36.36,0,0,0-.51,0c-.13.12-12.5,12.16-16.87,26.66-.46-1.34-.92-2.66-1.39-4a.06.06,0,0,0,0,0A282.49,282.49,0,0,0,136,352.21,144.58,144.58,0,0,1,154.55,332a.38.38,0,0,0,0-.52.37.37,0,0,0-.52,0,145.89,145.89,0,0,0-18.43,20q-1-2-2.06-4a.36.36,0,0,0-.17-.31c-3.25-6.06-6.41-11.31-9.37-15.82a.34.34,0,0,0-.17-.28l0,0c-10.4-15.75-18.27-22.29-18.42-22.42a.37.37,0,0,0-.52.06.36.36,0,0,0,.06.51c.15.12,7.58,6.3,17.53,21.13a42,42,0,0,0-19.6-4.11.36.36,0,0,0-.34.4.35.35,0,0,0,.39.33c.11,0,10.81-.72,20.41,4.67,2.87,4.36,5.94,9.43,9.09,15.26C115,342,96.48,343.49,96.29,343.51a.35.35,0,0,0-.33.39.37.37,0,0,0,.4.34c.18,0,19-1.51,36.54,3.58a275.24,275.24,0,0,1,15.95,36.29c-12.3-4.09-31.31-3.11-31.5-3.1a.36.36,0,0,0-.34.39.36.36,0,0,0,.38.34c.2,0,19.64-1,31.77,3.24,2.5,7,4.48,13,6.79,21.13.05.18.3.68.49.65,0,0,.05-.15.06-.16.19-.05.49.16.44,0-1.77-6.26-3.46-11.25-5.35-16.83,4-14.74,16.83-27.21,17-27.33A.37.37,0,0,0,168.56,361.88Z" transform="translate(-66.95 -51.67)" style="fill:#d2d2ff;opacity:0.5;mix-blend-mode:multiply"/><path d="M193.8,364.68a31,31,0,0,0-23.92-8.08c-5.84.59-12.22,3.71-13.5,9.45-.62,2.73-.4,6.35-3,7.42s-5-1.55-7.57-2.43c-4.32-1.45-9.26,3.5-7.8,7.81.66,2,2.33,3.68,2.19,5.75-.19,2.81-3.67,4.28-6.46,3.85s-5.25-2.07-8-2.77-6.27,0-7.24,2.66c-.86,2.38.63,5.58-1.24,7.28a5.16,5.16,0,0,1-3,1c-23.68,2.24-49.77,6.49-47.12,10.7.73,1.15,2.58.79,3.94.76,50.41-.79,95.74-.8,146.61-.77" transform="translate(-66.95 -51.67)" style="fill:#b2aaf2"/><rect x="80.95" y="60.63" width="208.99" height="295.49" rx="6.94" style="fill:#5148a5"/><rect x="93.07" y="72.22" width="184.76" height="272.31" rx="4.01" style="fill:#b0affd"/><rect x="100.17" y="80.54" width="170.55" height="255.67" rx="4.96" style="fill:#fff"/><path d="M254.5,86.25a11.09,11.09,0,0,0-11.09,11.09v14.21h22.18s0-11.29,0-14.21A11.1,11.1,0,0,0,254.5,86.25Zm0,17.45a6.22,6.22,0,1,1,6.22-6.22A6.21,6.21,0,0,1,254.5,103.7Z" transform="translate(-66.95 -51.67)" style="fill:#ffb127"/><path d="M260.72,97.48a6.23,6.23,0,0,0-6.22-6.22,7.3,7.3,0,0,0-.94.09,4.59,4.59,0,0,1,2.53-.6A6.23,6.23,0,0,1,262.31,97c0,3.12-1.59,4.8-4,5.42A6.82,6.82,0,0,0,260.72,97.48ZM246.8,110.13V95.92a10.82,10.82,0,0,1,4.66-9.24,11.09,11.09,0,0,0-8.05,10.66v14.21h22.18v-1.42Z" transform="translate(-66.95 -51.67)" style="fill:#ffb127;opacity:0.5;mix-blend-mode:multiply"/><path d="M319.61,117.19v11.1H185.17v-11.1a7.8,7.8,0,0,1,7.8-7.8H311.81A7.8,7.8,0,0,1,319.61,117.19Z" transform="translate(-66.95 -51.67)" style="fill:#ffb127"/><path d="M319.61,125.52v2.77H185.17v-11.1a7.8,7.8,0,0,1,7.8-7.8h1.08a11.67,11.67,0,0,0-3.68,8.09v8Z" transform="translate(-66.95 -51.67)" style="fill:#ffb127;opacity:0.5;mix-blend-mode:multiply"/><g style="opacity:0.30000000000000004"><path d="M242.12,161.12H214.41a1.74,1.74,0,0,1,0-3.47h27.71a1.74,1.74,0,0,1,0,3.47Z" transform="translate(-66.95 -51.67)" style="fill:#b0affd"/><path d="M325.35,170H304.29a1.74,1.74,0,0,1,0-3.47h21.06a1.74,1.74,0,1,1,0,3.47Z" transform="translate(-66.95 -51.67)" style="fill:#b0affd"/><path d="M295.16,170H214.41a1.74,1.74,0,0,1,0-3.47h80.75a1.74,1.74,0,0,1,0,3.47Z" transform="translate(-66.95 -51.67)" style="fill:#b0affd"/><path d="M325.35,178.78H214.41a1.74,1.74,0,0,1,0-3.47H325.35a1.74,1.74,0,1,1,0,3.47Z" transform="translate(-66.95 -51.67)" style="fill:#b0affd"/><path d="M325.35,187.61H290.09a1.73,1.73,0,0,1,0-3.46h35.26a1.73,1.73,0,1,1,0,3.46Z" transform="translate(-66.95 -51.67)" style="fill:#b0affd"/><path d="M281.31,187.61h-66.9a1.73,1.73,0,1,1,0-3.46h66.9a1.73,1.73,0,1,1,0,3.46Z" transform="translate(-66.95 -51.67)" style="fill:#b0affd"/><path d="M325.35,161.12H251.21a1.74,1.74,0,0,1,0-3.47h74.14a1.74,1.74,0,1,1,0,3.47Z" transform="translate(-66.95 -51.67)" style="fill:#b0affd"/><path d="M242.12,224.61H214.41a1.74,1.74,0,0,1,0-3.47h27.71a1.74,1.74,0,0,1,0,3.47Z" transform="translate(-66.95 -51.67)" style="fill:#b0affd"/><path d="M325.35,233.44H304.29a1.74,1.74,0,0,1,0-3.47h21.06a1.74,1.74,0,1,1,0,3.47Z" transform="translate(-66.95 -51.67)" style="fill:#b0affd"/><path d="M295.16,233.44H214.41a1.74,1.74,0,0,1,0-3.47h80.75a1.74,1.74,0,0,1,0,3.47Z" transform="translate(-66.95 -51.67)" style="fill:#b0affd"/><path d="M325.35,242.27H214.41a1.73,1.73,0,1,1,0-3.46H325.35a1.73,1.73,0,1,1,0,3.46Z" transform="translate(-66.95 -51.67)" style="fill:#b0affd"/><path d="M325.35,251.11H290.09a1.74,1.74,0,0,1,0-3.47h35.26a1.74,1.74,0,1,1,0,3.47Z" transform="translate(-66.95 -51.67)" style="fill:#b0affd"/><path d="M281.31,251.11h-66.9a1.74,1.74,0,0,1,0-3.47h66.9a1.74,1.74,0,1,1,0,3.47Z" transform="translate(-66.95 -51.67)" style="fill:#b0affd"/><path d="M325.35,224.61H251.21a1.74,1.74,0,0,1,0-3.47h74.14a1.74,1.74,0,1,1,0,3.47Z" transform="translate(-66.95 -51.67)" style="fill:#b0affd"/><path d="M242.12,285.88H214.41a1.74,1.74,0,0,1,0-3.47h27.71a1.74,1.74,0,0,1,0,3.47Z" transform="translate(-66.95 -51.67)" style="fill:#b0affd"/><path d="M325.35,294.71H304.29a1.73,1.73,0,0,1,0-3.46h21.06a1.73,1.73,0,1,1,0,3.46Z" transform="translate(-66.95 -51.67)" style="fill:#b0affd"/><path d="M295.16,294.71H214.41a1.73,1.73,0,0,1,0-3.46h80.75a1.73,1.73,0,0,1,0,3.46Z" transform="translate(-66.95 -51.67)" style="fill:#b0affd"/><path d="M325.35,303.55H214.41a1.74,1.74,0,0,1,0-3.47H325.35a1.74,1.74,0,1,1,0,3.47Z" transform="translate(-66.95 -51.67)" style="fill:#b0affd"/><path d="M325.35,312.38H290.09a1.74,1.74,0,0,1,0-3.47h35.26a1.74,1.74,0,1,1,0,3.47Z" transform="translate(-66.95 -51.67)" style="fill:#b0affd"/><path d="M281.31,312.38h-66.9a1.74,1.74,0,0,1,0-3.47h66.9a1.74,1.74,0,1,1,0,3.47Z" transform="translate(-66.95 -51.67)" style="fill:#b0affd"/><path d="M325.35,285.88H251.21a1.74,1.74,0,0,1,0-3.47h74.14a1.74,1.74,0,1,1,0,3.47Z" transform="translate(-66.95 -51.67)" style="fill:#b0affd"/><path d="M242.12,348.26H214.41a1.73,1.73,0,1,1,0-3.46h27.71a1.73,1.73,0,1,1,0,3.46Z" transform="translate(-66.95 -51.67)" style="fill:#b0affd"/><path d="M325.35,357.1H304.29a1.74,1.74,0,0,1,0-3.47h21.06a1.74,1.74,0,1,1,0,3.47Z" transform="translate(-66.95 -51.67)" style="fill:#b0affd"/><path d="M295.16,357.1H214.41a1.74,1.74,0,0,1,0-3.47h80.75a1.74,1.74,0,0,1,0,3.47Z" transform="translate(-66.95 -51.67)" style="fill:#b0affd"/><path d="M325.35,365.93H214.41a1.74,1.74,0,0,1,0-3.47H325.35a1.74,1.74,0,1,1,0,3.47Z" transform="translate(-66.95 -51.67)" style="fill:#b0affd"/><path d="M325.35,374.76H290.09a1.74,1.74,0,0,1,0-3.47h35.26a1.74,1.74,0,1,1,0,3.47Z" transform="translate(-66.95 -51.67)" style="fill:#b0affd"/><path d="M281.31,374.76h-66.9a1.74,1.74,0,0,1,0-3.47h66.9a1.74,1.74,0,1,1,0,3.47Z" transform="translate(-66.95 -51.67)" style="fill:#b0affd"/><path d="M325.35,348.26H251.21a1.73,1.73,0,0,1,0-3.46h74.14a1.73,1.73,0,1,1,0,3.46Z" transform="translate(-66.95 -51.67)" style="fill:#b0affd"/></g><rect x="112.72" y="105.05" width="25.4" height="25.4" rx="2.1" style="fill:none;stroke:#b0affd;stroke-miterlimit:10;stroke-width:1.1106px"/><rect x="112.72" y="168.34" width="25.4" height="25.4" rx="2.1" style="fill:none;stroke:#b0affd;stroke-miterlimit:10;stroke-width:1.1106px"/><rect x="112.72" y="231.62" width="25.4" height="25.4" rx="2.1" style="fill:none;stroke:#b0affd;stroke-miterlimit:10;stroke-width:1.1106px"/><rect x="112.72" y="294.91" width="25.4" height="25.4" rx="2.1" style="fill:none;stroke:#b0affd;stroke-miterlimit:10;stroke-width:1.1106px"/><path d="M192.36,178.43a1.93,1.93,0,0,1-1.48-.69l-9.58-11.57a1.93,1.93,0,0,1,3-2.45l7.88,9.52,17-26.83a1.93,1.93,0,0,1,3.26,2.07L194,177.54a1.93,1.93,0,0,1-1.51.89Z" transform="translate(-66.95 -51.67)" style="fill:#ffb127"/><path d="M192.36,241.19a1.93,1.93,0,0,1-1.48-.69l-9.58-11.57a1.93,1.93,0,0,1,3-2.45l7.88,9.52,17-26.83a1.93,1.93,0,0,1,3.26,2.06L194,240.3a1.93,1.93,0,0,1-1.51.89Z" transform="translate(-66.95 -51.67)" style="fill:#ffb127"/><path d="M192.36,304.23a1.94,1.94,0,0,1-1.48-.7L181.3,292a1.94,1.94,0,0,1,.26-2.72,1.92,1.92,0,0,1,2.71.26l7.88,9.52,17-26.83a1.93,1.93,0,0,1,3.26,2.07L194,303.33a1.93,1.93,0,0,1-1.51.89Z" transform="translate(-66.95 -51.67)" style="fill:#ffb127"/><path d="M243.64,322.23c-3,3.2-5.07,23.7-5.15,24.47s-15.08,9.2-15.08,9.2l2.11,2.41s16-4,18.86-7.5c2.44-2.95,8.07-27.05,8.07-27.05S248.59,316.92,243.64,322.23Z" transform="translate(-66.95 -51.67)" style="fill:#7762ef"/><ellipse cx="199.98" cy="408.74" rx="44.68" ry="3.06" style="fill:#b0affd;opacity:0.4;mix-blend-mode:multiply"/><path d="M289.69,447.32a30.36,30.36,0,0,0,1.8,3.23c.61.77,3.24-1,3.25-1.62s-2.33-4.49-2.33-4.49" transform="translate(-66.95 -51.67)" style="fill:#ed9c80"/><path d="M295.91,449.17c.57.86,1.5,2.55,1.5,2.55L295.09,454l-.61-.28a5.55,5.55,0,0,1-1.08,1.82,12,12,0,0,1-2.4,1.73c-2.31,1.14-4.25,1.31-4.51,1-1.1-1.23,1.95-2.77,2.52-3.17a4.65,4.65,0,0,0,1.93-4.23c-.13-.81-.36-.88.06-1a1,1,0,0,1,.81.08,1.79,1.79,0,0,0,2.12-.24,2.2,2.2,0,0,0,.68-1.19A1.28,1.28,0,0,1,295.91,449.17Z" transform="translate(-66.95 -51.67)" style="fill:#3a3a3a"/><path d="M245.51,452.21a6.94,6.94,0,0,0-.52,2.4c.07,1,3.25,1,3.62.53s.55-4.88.55-4.88" transform="translate(-66.95 -51.67)" style="fill:#ed9c80"/><path d="M249.45,456a19.39,19.39,0,0,1-.29,2.61H245.5l-.18-.58a6,6,0,0,1-2.12.58h-3.09c-2.26,0-3.54-.27-3.6-.65-.24-1.6,2.46-1.52,3.17-1.52,2,0,4.2-.91,4.68-1.89.34-.71.19-.9.61-.76a1.05,1.05,0,0,1,.63.52,1.86,1.86,0,0,0,1.9,1,2.19,2.19,0,0,0,1.24-.57A1.29,1.29,0,0,1,249.45,456Z" transform="translate(-66.95 -51.67)" style="fill:#3a3a3a"/><path d="M264.15,385.78c0,.13-3-3.27-3-3.12-1.18,5.94-6.66,25.82-8.48,31h0a5.51,5.51,0,0,1-2.85,2.6c-2.67.7-7-.22-7.29-5.34,0-.57.08-1.18,0-1.85-.76-7.89,6.78-42.68,7-44.9s4.54-.62,5.76-1C261.37,361.17,265.75,377.46,264.15,385.78Z" transform="translate(-66.95 -51.67)" style="fill:#2d24a3"/><path d="M253,416.52c-1.24-3.71.64-8,.64-8s-10.53-8.09-11.06-3.15c-.05.39-.45,3.74-.44,5.63,0,6.75,2.35,28.14,2.18,41.2V453a26,26,0,0,0,4.84.32h.44c.88-8.14,2.78-19.2,3.68-30.32A25.83,25.83,0,0,0,253,416.52Z" transform="translate(-66.95 -51.67)" style="fill:#2d24a3"/><path d="M279.33,417.05c-2.07-2.72-4.26-3.94-4.9-6-1.51-4.82-1.1-24.38-1.24-29.81.43-1.11,4.41-12.22-3.68-20.4,0,0-7.27,3.31-13.09,3.7a28.26,28.26,0,0,1-6.91-.16s4.33,6.91,4.58,10c.43,5.21,9.62,36.67,10.33,38.39a20.65,20.65,0,0,0,3.94,6.28c4.08,5.62,13.62,17.43,20.86,28.74l.49.73a19.19,19.19,0,0,0,4.15-2.49C290,438.46,285.89,425.68,279.33,417.05Z" transform="translate(-66.95 -51.67)" style="fill:#2d24a3"/><path d="M243.64,322.23c1.48-1.69,7.82-4.31,14.09-4.12,4.32.14,18,1.55,19.36,4.44.67,1.48.61,15.5-.37,20.71-.74,3.93-3,14-3,16.35s1.26,3.35.67,4c-1.31,1.52-11.15,2.2-15.38,2.2-3.76,0-10.16-1-10.48-2.2-.48-1.79.73-1.72.9-3.6s1.05-14.24,0-16c-1.75-2.85-4.41-10.93-4.54-13.08S242.17,323.93,243.64,322.23Z" transform="translate(-66.95 -51.67)" style="fill:#7762ef"/><path d="M254,312.79a49.21,49.21,0,0,1-.25,5.43,8.31,8.31,0,0,1-1.24.7s.74,4.53,1.87,4.19,8.64-4.12,8.64-4.12-1.07-.43-1.07-.86,1-8.62,1-8.62" transform="translate(-66.95 -51.67)" style="fill:#ed9c80"/><path d="M256.07,295.64a3.19,3.19,0,0,0-3.24-.21,4.76,4.76,0,0,0-2.21,2.5,3.73,3.73,0,0,0,0,3.18A2,2,0,0,0,249.4,303a4.55,4.55,0,0,0,1,2.4,2.18,2.18,0,0,0,2.16.9,2.5,2.5,0,0,0,1.38-1,6.28,6.28,0,0,0,.77-1.53,41.46,41.46,0,0,0,2.1-7.67" transform="translate(-66.95 -51.67)" style="fill:#170d54"/><path d="M259.25,293.85c-1.09.29-4-.3-4.77.89s-1.49,4.07-1.79,4.87c-.59,1.58-1,3.27-1.41,4.9-.56,2.13-2,6.13.08,7.91a4.26,4.26,0,0,0,2.12.71c1,.18,2,.38,3,.55a9.72,9.72,0,0,0,4.73.1c2-.65,3.14-3.44,3.66-5.33l3-10.83Z" transform="translate(-66.95 -51.67)" style="fill:#ed9c80"/><path d="M263.73,309.53a1.13,1.13,0,0,0,.28.85,1.09,1.09,0,0,0,1.2,0,3.13,3.13,0,0,0,1.71-2.67c.09-1.29-.73-2.47-1.84-2a1.73,1.73,0,0,0-.9,1.79" transform="translate(-66.95 -51.67)" style="fill:#ed9c80"/><path d="M266.46,303.6c-.35,1.08-1.27,3.52-2.25,3.29s.4-4.07,1.25-5.6c-1.23,0-2.75-.2-3.19-1.35-.1-.25-.18-.59-.45-.65s-.42.14-.61.26c-.86.56-2,0-2.73-.75-.16-.18-.34-.38-.58-.37a.85.85,0,0,0-.38.19c-1.42,1-5.19,1-5.18-.81-1.24.63-2-.91-2-2s.86-2.81,2.57-2.76c-.08-1.29.93-2.1,2-2.89a6.43,6.43,0,0,1,3.63-1.2c2.05-.09,4.37.75,5.07,2.67a.62.62,0,0,0,.23.37.64.64,0,0,0,.47,0,4.93,4.93,0,0,1,4.54.9,3.44,3.44,0,0,1,.67,4.35,2.55,2.55,0,0,1,1.65,2.92,6.26,6.26,0,0,1-1.81,3.15,2.42,2.42,0,0,1,1.16,3.38,3.84,3.84,0,0,1-3.7,1.65c.31-1.23-.22-2.65-1.41-2.87" transform="translate(-66.95 -51.67)" style="fill:#2c1e56"/><path d="M254.14,324.36s-.41,19.2-1.19,30.87l2.82,3.9,1.94-4.88a148.28,148.28,0,0,0-1.84-29.76Z" transform="translate(-66.95 -51.67)" style="fill:#2c1e56"/><path d="M253.49,322.67l.07.27a5.18,5.18,0,0,0,.58,1.42h0l1.73.13s1.18-.61,1.34-1.28-1.94-1.75-1.94-1.75l-.25.1a3.72,3.72,0,0,0-1.51,1.09Z" transform="translate(-66.95 -51.67)" style="fill:#170d54"/><path d="M262.19,316.32a10.81,10.81,0,0,1,2.36,2.39,22.25,22.25,0,0,1-5.76,7.15,10.06,10.06,0,0,0-3.52-4.4S261.56,320.16,262.19,316.32Z" transform="translate(-66.95 -51.67)" style="fill:#eaeaea"/><path d="M255.27,321.46a7.45,7.45,0,0,0-3.44,3.28,16.34,16.34,0,0,1,.47-6.08s1.16-2,1.65-2A9.3,9.3,0,0,0,255.27,321.46Z" transform="translate(-66.95 -51.67)" style="fill:#eaeaea"/><path d="M253,416.52a8.55,8.55,0,0,1-.42-2.67c0-.05,0-.1.07-.14h0c1.22-3.51,4.1-13.65,6.22-21.72l-3.28-11.69s-2,23.79-2.64,25.5-2.69,7.2-2.49,8.39,1.48,3.35,1.28,5.23-.16,18.68-.16,18.77c.65-4.86,1.28-10,1.7-15.19A25.83,25.83,0,0,0,253,416.52Z" transform="translate(-66.95 -51.67)" style="fill:#3d38a0;opacity:0.5;mix-blend-mode:multiply"/><path d="M225.72,354.9a2.23,2.23,0,0,0-.56-1.9,4.21,4.21,0,0,0-1.67-1c-.16-.06-.38-.1-.48.05a.32.32,0,0,0,0,.35c.23.4.72.58,1,1a4,4,0,0,1,.22.47,2,2,0,0,0,1.47,1.1" transform="translate(-66.95 -51.67)" style="fill:#ffbe9d"/><path d="M248,340.92a69.48,69.48,0,0,1-3-8.71c-1.19,6.05-.8,16.65-1.8,17.56s-11.05,6.63-11.05,6.63h0c4.74-1.49,10.54-3.63,12.16-5.59.92-1.11,2.28-5.2,3.64-9.88Z" transform="translate(-66.95 -51.67)" style="fill:#5f52dd;opacity:0.5;mix-blend-mode:multiply"/><path d="M254,313.23a34.11,34.11,0,0,0,5,.8c.76-.12-1.63,1.3-2.07,1.35s-2.92-.29-2.92-.29Z" transform="translate(-66.95 -51.67)" style="fill:#ed9c80;opacity:0.30000000000000004;mix-blend-mode:multiply"/><path d="M277.09,322.55a1.29,1.29,0,0,0-.24-.35l-9.05,8.85c-2.16,5.75-6.46,20.86-6.46,20.86s-4.08,1.91-6.81,3.33c-.69.36-2.65,1.68-5,3.28l-.11,1.52c-.17,1.88-.43,1.86.06,3.65a35.42,35.42,0,0,1-.77,4.73c6.81-1.74,20.85-6.14,21.38-6.43.8-.43,4.93-17.06,7.32-27.15C277.81,328.69,277.58,323.64,277.09,322.55Z" transform="translate(-66.95 -51.67)" style="fill:#5f52dd;opacity:0.5;mix-blend-mode:multiply"/><polygon points="125.35 249.87 141.68 258.56 194.85 334.51 195.34 335.21 200.29 342.47 187.29 351.57 182.01 343.83 180.95 342.32 128.68 267.66 125.35 249.87" style="fill:#ffc25b"/><rect x="251.4" y="394.26" width="15.87" height="4.87" transform="translate(-247.62 168.92) rotate(-35.01)" style="fill:#fe7f9a"/><rect x="248.61" y="390.27" width="15.87" height="4.87" transform="matrix(0.82, -0.57, 0.57, 0.82, -245.67, 166.19)" style="fill:#ffe7c5"/><polygon points="128.68 267.66 141.68 258.56 125.35 249.87 128.68 267.66" style="fill:#ffe7c5"/><polygon points="126.54 256.24 131 252.87 125.35 249.87 126.54 256.24" style="fill:#ffb127"/><polygon points="126.54 256.24 131 252.87 125.35 249.87 126.54 256.24" style="fill:#ffb127;mix-blend-mode:multiply"/><polygon points="125.35 249.87 139.01 260.43 196.69 344.99 200.29 342.47 141.68 258.56 125.35 249.87" style="fill:#ffc25b;mix-blend-mode:multiply"/><path d="M241.26,365.62s-1.94.61-2.95.9c-.66.19-3.77-.14-5.6.28a4.09,4.09,0,0,0-2.37,1.22,1.7,1.7,0,0,0,.14,2.41c.21.15.5.27.52.53a.88.88,0,0,1-.09.38,1,1,0,0,0,1.47,1.17,1.69,1.69,0,0,0,1.57,1.63,1.36,1.36,0,0,1,.5-1.22,2.73,2.73,0,0,1,1.28-.27,3.42,3.42,0,0,0,2.08-1c.39-.39.69-.87,1.05-1.3a5.24,5.24,0,0,1,2.89-1.73" transform="translate(-66.95 -51.67)" style="fill:#ed9c80"/><path d="M267.75,330.09c-.84,2.39-5.28,23.5-5.28,23.5a40.42,40.42,0,0,0-7.09,2.51c-2.12,1.1-16.89,10.28-16.89,10.28l1.47,3.46s26.3-9.32,27.45-9.95,11.72-27.28,11.72-32c0-2.8-2.27-5.67-2.27-5.67" transform="translate(-66.95 -51.67)" style="fill:#7762ef"/><path d="M222.94,358.38a1.77,1.77,0,0,1-1.85-1.44,1.22,1.22,0,0,0-.11-.5c-.15-.26-.49-.32-.78-.42a3.37,3.37,0,0,1-2-2.63,3.44,3.44,0,0,1,0-1.83,1.88,1.88,0,0,1,1.26-1.24.63.63,0,0,1,.36,0,.69.69,0,0,1,.26.25,4.39,4.39,0,0,1,.7,1.54,1.84,1.84,0,0,0,.5,1.1,4.28,4.28,0,0,0,.75.34,2.18,2.18,0,0,1,.89,1.37c.26.8-.17,2.62,0,3.46" transform="translate(-66.95 -51.67)" style="fill:#ed9c80"/><path d="M304.63,302.89h25a1.22,1.22,0,0,1,1.19.91l3.93,14.37,7.61,4H314.79l-7.6-4-3.75-13.72A1.23,1.23,0,0,1,304.63,302.89Z" transform="translate(-66.95 -51.67)" style="fill:#2c1e56"/><path d="M307.56,317.87h27.05l-3.85-14.09a1.2,1.2,0,0,0-1.17-.89H305.06a1.21,1.21,0,0,0-1.17,1.53Z" transform="translate(-66.95 -51.67)" style="fill:#2d24a3"/><path d="M304.51,304.25,305,306h0l2.82,10.3a1.26,1.26,0,0,0,1.22.93h23.06a1.27,1.27,0,0,0,1.22-1.61l-.15-.55-.53-1.91-.54-2-1.32-4.84-.5-1.81a1.28,1.28,0,0,0-1.22-.95h-24a.56.56,0,0,0-.45.22A.59.59,0,0,0,304.51,304.25Z" transform="translate(-66.95 -51.67)" style="fill:#b0affd"/><polygon points="248.08 270.12 275.13 270.12 267.67 266.2 240.62 266.2 248.08 270.12" style="fill:#2d24a3"/><path d="M372.82,421.06c0,1-9.52,1.88-21.26,1.88s-21.26-.84-21.26-1.88,9.52-1.87,21.26-1.87S372.82,420,372.82,421.06Z" transform="translate(-66.95 -51.67)" style="fill:#b0affd;opacity:0.4;mix-blend-mode:multiply"/><path d="M358.27,412.89s.08,3.57.15,4.48,3,1,3.31.51.5-4.66.5-4.66" transform="translate(-66.95 -51.67)" style="fill:#ed9c80"/><path d="M362.49,418.68a19.75,19.75,0,0,1-.26,2.5h-3.34l-.17-.56a5.21,5.21,0,0,1-1.93.56H354c-2.07,0-3.24-.26-3.3-.63-.21-1.52,2.25-1.45,2.9-1.45,1.84,0,3.84-.86,4.27-1.8.32-.68.18-.85.56-.72a.94.94,0,0,1,.58.49,1.67,1.67,0,0,0,1.74.95,2,2,0,0,0,1.13-.54A1.21,1.21,0,0,1,362.49,418.68Z" transform="translate(-66.95 -51.67)" style="fill:#3a3a3a"/><path d="M346.53,411.93a27.91,27.91,0,0,0,1,3.27c.4.82,3.12-.19,3.26-.76s-1.25-4.51-1.25-4.51" transform="translate(-66.95 -51.67)" style="fill:#ed9c80"/><path d="M351.82,414.9c.35.89.87,2.6.87,2.6L350.16,419l-.5-.38a4.9,4.9,0,0,1-1.33,1.39,10.56,10.56,0,0,1-2.51,1c-2.31.53-4.1.28-4.29,0-.76-1.33,2.31-2.06,2.9-2.3a4.14,4.14,0,0,0,2.56-3.38c0-.74-.15-.85.25-.88a1,1,0,0,1,.72.25,1.68,1.68,0,0,0,2,.24,2,2,0,0,0,.85-.93A1.22,1.22,0,0,1,351.82,414.9Z" transform="translate(-66.95 -51.67)" style="fill:#3a3a3a"/><path d="M364.39,330.76c1.2-.89,2.51-1.89,3.75-2.93,2.84-2.38,5.37-5,5.68-6.85.69-4.22.15-16.76-.18-22.68,0-.35,0-.69-.06-1-.33-5.6-3.34-8.08-4.84-9-.77,7.27-2.5,23.68-2.64,24.53C365.91,313.93,364.39,330.76,364.39,330.76Z" transform="translate(-66.95 -51.67)" style="fill:#ffc25b"/><path d="M364.38,330.76c1.2-.89,2.51-1.89,3.76-2.93.1-4.62,1.48-11.08,3.42-19.16,2.3-10.19.85-12.07.85-12.07l-4.62.71c-.77,7.19-1.6,15-1.7,15.54C365.91,313.93,364.38,330.76,364.38,330.76Z" transform="translate(-66.95 -51.67)" style="fill:#ffb127;opacity:0.5;mix-blend-mode:multiply"/><path d="M353.28,369a110.47,110.47,0,0,0,1.43,14.21c.62,3.16,10.53,3.73,9.25,1.3-1.83-3.52,1.37-14.59,3-33.45.23-2.85,1.51-3.18,2.36-9.05a18,18,0,0,0-2.39-11l-13.76-1.27L353,346.92l-.06,5.79S352.86,360.66,353.28,369Z" transform="translate(-66.95 -51.67)" style="fill:#2d24a3"/><path d="M362.75,382.35s2.69,3.3,2.32,9.34-2.48,24.09-2.48,24.09-3.16.47-4.79-.13c0,0-3.4-33.47-3.41-37.27S362.75,382.35,362.75,382.35Z" transform="translate(-66.95 -51.67)" style="fill:#2d24a3"/><path d="M353.28,369a107.22,107.22,0,0,1,4-11.12,21.54,21.54,0,0,1,3.9-6c7-7.32,2.18-16.79,2.18-16.79s-5.68,4.7-6.08,5.19-2.65,4.46-4.32,6.64l-.06,5.79S352.86,360.66,353.28,369Z" transform="translate(-66.95 -51.67)" style="fill:#3d38a0;opacity:0.5;mix-blend-mode:multiply"/><path d="M337,366.78s-3.12,10.27-2.62,13.48,11.9,33.32,11.9,33.32a11.4,11.4,0,0,0,4.57-1.14s-.24-13.24-2.48-21.53-4.84-13.37-7.06-14.11S337.59,368.51,337,366.78Z" transform="translate(-66.95 -51.67)" style="fill:#2d24a3"/><path d="M347.05,372.88s-3.38,5.39-1.3,10.22-3.48,4-3.48,4-2.79-8.1-2.17-9.16,2.91-4.57,3.65-4.76S347.05,372.88,347.05,372.88Z" transform="translate(-66.95 -51.67)" style="fill:#2d24a3"/><path d="M343.64,330.06s-7.23,33.5-8.18,42.52c-.4,3.83,3.62,10.16,7.33,6.69,4.44-4.13,11.61-23,13.84-26.38s10.56-6.4,4.87-23.36" transform="translate(-66.95 -51.67)" style="fill:#2d24a3"/><path d="M361.51,285.06a15.68,15.68,0,0,1-.56-5.83c.43-2.47,1.92-6.93,1.36-10.27s-4.76-6.12-9.22-5.69-5.75,4.7-6.49,7.18a25.48,25.48,0,0,0-.44,8.29,5.75,5.75,0,0,0,2,4.08c.75.43,3.54-.14,4,.4s.86,3.68.86,3.68" transform="translate(-66.95 -51.67)" style="fill:#ed9c80"/><path d="M363.61,287.71a5.66,5.66,0,0,0-1-2.65c-.74-.69-5.69-.69-7.18-.51a23.14,23.14,0,0,0-5.63,2.26c-.48.36.47,2.24.47,2.24Z" transform="translate(-66.95 -51.67)" style="fill:#fff"/><path d="M361.32,280.84s-6.19.53-7.36,0a4.66,4.66,0,0,1-3-3.77c-.16-2.11.28-2.76-.53-3.93s-1.51-.77-1.64.34-.17,3.12-.46,3.27-.87-1.21-.71-3.36a13.44,13.44,0,0,1,.89-4.55c.56-1.24.86-1.17,1.36-1.39a3.89,3.89,0,0,1-2.19-2c-1.24-1.93-.56-4.94,2.72-4.93,5.73,0,11.82,1.14,11.94,5.38,0,0,2-.31,2.07,3.56s-2.41,8.54-2.6,9.74S361.94,280.56,361.32,280.84Z" transform="translate(-66.95 -51.67)" style="fill:#2c1e56"/><path d="M344.13,326.3c-.23,1.93-1.93,4.93-.77,5.35a21.15,21.15,0,0,0,4.67-.14h.17c2.06-.17,4.41-.4,6.38-.55,7.87-.33,11.88,1.23,12.67.79.38-.23.39-.91.27-1.61a18.27,18.27,0,0,1-.13-5.22c.2-1.46.47-3.2.84-5.19,1.3-6.89,3.85-17.42,4.23-23.75.6-9.93-10-9-10-9-13.52-.84-19.87,3.06-20.61,8.87q-.07.61-.12,1.32c-.34,6,1.48,15.67,2.35,22.89A37.24,37.24,0,0,1,344.13,326.3Z" transform="translate(-66.95 -51.67)" style="fill:#ffc25b"/><path d="M344.13,326.3c-.23,1.93-1.93,4.93-.77,5.35a21.15,21.15,0,0,0,4.67-.14c-2.09.16-2.48-1.45-2-2.52a15.29,15.29,0,0,0,1.34-6.4c-.1-2.88-1.18-9.37-1.82-15.51a50.84,50.84,0,0,1,0-10.76c-.32.65-1.25,1.56-3.87,2.17-.06,6,1.59,14.85,2.39,21.57A37.24,37.24,0,0,1,344.13,326.3Z" transform="translate(-66.95 -51.67)" style="fill:#ffb127;opacity:0.5;mix-blend-mode:multiply"/><path d="M309.62,322.6c-.31-.17,0-.53.33-.52l.25,0c-.55-.18-1-.33-1.1-.39-.29-.16,0-.5.28-.53a3.29,3.29,0,0,1-.45-.18c-.38-.2-.05-.55.32-.52a3.69,3.69,0,0,1,.59.12l-.3-.12c-.31-.16-.08-.5.24-.5a3.78,3.78,0,0,1,.67.14c.35.09.74.14,1.08.23a7.89,7.89,0,0,0,1,.17,4.27,4.27,0,0,0,1.78-1l-1.18-.65s-.07-1,3.22.21c.49.18.91.85,1.22.94a7.56,7.56,0,0,0,1.21.07V323a6.73,6.73,0,0,0-2.08-.09,21,21,0,0,1-2.72.83,9.6,9.6,0,0,1-1.37-.13l-1-.21-.93-.29Z" transform="translate(-66.95 -51.67)" style="fill:#ed9c80"/><path d="M318.07,323.16s5.15,1.17,9.34,1.95a41.05,41.05,0,0,0,10,.82h.08c2.1-.07,4.87-.69,5.52-1.63a33.59,33.59,0,0,0,1.91-4.64c1.06-2.19,2.66-8.12,4-13.17,0-.09,0-.16.06-.23.63-2.36,1.2-4.51,1.64-6a3.26,3.26,0,0,0-.05-2.05,2.9,2.9,0,0,0-1.11-1.44v0c-1.42-1-1-2.33-2.44-1.39-.08,0-.95-.23-1-.18a10.93,10.93,0,0,1-.3-5.4s-4.09,1.79-5.58,10.22c-.33,1.86-2.38,15.05-2.53,16.67,0,.12,0,.24,0,.35a4,4,0,0,0-.11.48c0,.09,0,.21,0,.32a15.89,15.89,0,0,0-4,.38c-4.66,1.06-15.1,1.6-15.1,1.6l-.27,2.6v0h0Z" transform="translate(-66.95 -51.67)" style="fill:#ffc25b"/><g style="opacity:0.1;mix-blend-mode:screen"><polygon points="257.27 251.87 265.14 259.47 263.82 254.63 260.97 251.87 257.27 251.87" style="fill:#efefff"/><polygon points="266.21 263.38 254.28 251.87 255.74 251.87 265.69 261.47 266.21 263.38" style="fill:#efefff"/><polygon points="241.98 251.87 256.16 265.55 257.6 265.55 243.43 251.87 241.98 251.87" style="fill:#efefff"/><path d="M304.51,304.25,305,306h0l11.64,11.23h4l-14.17-13.67h-1.4a.56.56,0,0,0-.45.22A.59.59,0,0,0,304.51,304.25Z" transform="translate(-66.95 -51.67)" style="fill:#efefff"/></g><path d="M369.24,260.05a7.91,7.91,0,0,1,9.88-10.28,7.92,7.92,0,1,1-8.69,12.42l-3.42.6Z" transform="translate(-66.95 -51.67)" style="fill:#b2aaf2"/><path d="M379.92,255a1.94,1.94,0,0,0-2.73.11l-.47.52-.53-.48a1.93,1.93,0,1,0-2.63,2.83l1.94,1.8h0a2,2,0,0,0,1.07.5,2,2,0,0,0,1.66-.61l1.8-1.95A1.93,1.93,0,0,0,379.92,255Z" transform="translate(-66.95 -51.67)" style="fill:#fff"/><ellipse cx="52.31" cy="367.61" rx="34.88" ry="2.39" style="fill:#b0affd;opacity:0.4;mix-blend-mode:multiply"/><path d="M92,250.18a7.81,7.81,0,0,0,1.74-4.93,7.92,7.92,0,1,0-7.92,7.92,7.83,7.83,0,0,0,4.38-1.33l3.07,1.63Z" transform="translate(-66.95 -51.67)" style="fill:#b2aaf2"/><path d="M82.49,243.09a1.93,1.93,0,0,1,2.73,0l.49.51.51-.5a1.93,1.93,0,1,1,2.71,2.75l-1.88,1.86h0a1.92,1.92,0,0,1-2.73,0l-1.85-1.89A1.92,1.92,0,0,1,82.49,243.09Z" transform="translate(-66.95 -51.67)" style="fill:#fff"/><path d="M98.71,292.75,95.9,303.66s10.53,8.06,14.63,4.67-.11-13.84-.11-13.84L109,293Z" transform="translate(-66.95 -51.67)" style="fill:#2c1e56"/><path d="M118.27,256.63s3,3.52,2,10.71c-.35,2.11,2.42,5.05,4.26,6.54a7.39,7.39,0,0,1,2.07,8.34c-1.46,3.32-2.06,3.64-.9,6.66,2.23,5.78.9,16.42-7.38,15.56s-9-29.32-9-29.32l.55-9.47Z" transform="translate(-66.95 -51.67)" style="fill:#2c1e56"/><path d="M115.49,285.84s3,.44,6.82.87c5.73.66,13.26,1.28,15.16.33,3.17-1.59,13.59-10.53,13.59-10.53l1.63-1.06a2.4,2.4,0,0,1,.9-.3,10.39,10.39,0,0,0,1.71-.3,4.11,4.11,0,0,0,1.09-.48.81.81,0,0,0,.18-.1l.05,0a17.58,17.58,0,0,0,1.74-1.43c.72-.59-.35-.95-1.57-.36s-.44.47-1.21.44,0-1.17.76-2a20.36,20.36,0,0,0,1.2-1.68c.63-.88,1.23-1.57,1.58-2.13.24-.4.34-.91-.12-.79s-2.49,2.12-3,2.46-1.25-.29-2.66.49-2,3.08-2.42,3.81-14.86,9.17-16.65,9.09-15.32-3.32-19.51-3.09C112.49,279.2,115.49,285.84,115.49,285.84Z" transform="translate(-66.95 -51.67)" style="fill:#ed9c80"/><path d="M122.31,286.71c5.73.66,13.26,1.28,15.16.33,3.17-1.59,13.59-10.53,13.59-10.53l1.63-1.06a2.4,2.4,0,0,1,.9-.3,10.39,10.39,0,0,0,1.71-.3,4.11,4.11,0,0,0,1.09-.48c-1,.48-3,.09-3.94.61s-8.38,6.5-11.7,8.61-4.56,2.81-7.54,2.8a86.3,86.3,0,0,1-10-1.25Z" transform="translate(-66.95 -51.67)" style="fill:#ed9c80;opacity:0.30000000000000004;mix-blend-mode:multiply"/><path d="M119.65,408.42a27,27,0,0,1,.44,5.3c-.34,1.62,0,2.1,0,2.1l6.17-.35s-2.68-1.41-2.31-7.76S119.65,408.42,119.65,408.42Z" transform="translate(-66.95 -51.67)" style="fill:#fc9"/><path d="M120,414.21a9.61,9.61,0,0,0,5.32.39,24.78,24.78,0,0,0,8.07,2.59c2.82.44,2.25,2.75-2.58,2.3a61.47,61.47,0,0,0-9.28-.26c-1.08.08-2.8.18-2.85-.58S119.14,413.94,120,414.21Z" transform="translate(-66.95 -51.67)" style="fill:#3a3a3a"/><path d="M100.74,407.89a27.45,27.45,0,0,1,.45,5.3c-.34,1.61-.06,2.1-.06,2.1l6.18-.35s-2.69-1.42-2.32-7.76S100.74,407.89,100.74,407.89Z" transform="translate(-66.95 -51.67)" style="fill:#fc9"/><path d="M101.1,413.68a9.61,9.61,0,0,0,5.32.39,25,25,0,0,0,8.06,2.59c2.82.44,2.26,2.75-2.57,2.3a61.61,61.61,0,0,0-9.29-.26c-1.07.08-2.8.17-2.85-.58S100.23,413.41,101.1,413.68Z" transform="translate(-66.95 -51.67)" style="fill:#3a3a3a"/><path d="M124.52,319.89s2.8,41.63,2.88,47a78,78,0,0,1-.29,10.58c-.33,3.28.92,31.06.92,31.06s-9.29,2.15-11.58-.05c0,0,1.23-30.22.2-35.42s-4.89-31.54-4.89-31.54l6-26.64Z" transform="translate(-66.95 -51.67)" style="fill:#201d93"/><path d="M103.11,369.31c1.16-7.73.32-39.21.57-45.87s18.91-2.74,18.91-2.74-7,38.85-7.84,44.47-1.85,7.24-2.35,12.63-3.81,30.71-3.81,30.71S98.23,410,97.51,408C96.16,397.94,103.11,369.31,103.11,369.31Z" transform="translate(-66.95 -51.67)" style="fill:#2d24a3"/><path d="M120.63,292.65c-.22.52.23,4.11.91,8.65l.09.57c.84,5.6,2,12.47,2.71,16.85,0,.2.06.38.09.56.21,1.36.38,2.43.46,3.08,0,0-12.39-2.66-22.39,1.54a61.67,61.67,0,0,1,3-12l.21-.51a29.73,29.73,0,0,1,1.41-3.13l.09-.17a3.56,3.56,0,0,0,.17-.41.55.55,0,0,0,.08-.15c.62-1.68.35-3.84-.4-6.17a36,36,0,0,0-3.05-6.55c-.72-1.26-1.49-2.48-2.21-3.57h0c-2.08-3.11-3.88-5.34-3.88-5.34a9.69,9.69,0,0,1,1.23-7.66l0,0a8.8,8.8,0,0,1,1-1.22c1.06-1.06,4-2.42,6.41-3.22.62-.2,1.2-.38,1.71-.49a6.15,6.15,0,0,1,1-.18,11.73,11.73,0,0,1,3.32.13c2.6.58,3.52,2.29,7.41,3.46l8.39,2.52s-1.13,7.1-.26,9.23l-5.87-.16S121.21,291.26,120.63,292.65Z" transform="translate(-66.95 -51.67)" style="fill:#ffc064"/><path d="M107.43,307.48c1.55-4.16-2.38-11.35-5.65-16.28h0l3.62-3.81s-.07,6.26,1,8.71S109.18,303.53,107.43,307.48Z" transform="translate(-66.95 -51.67)" style="fill:#ffb127;opacity:0.5;mix-blend-mode:multiply"/><path d="M120.58,282.36s2.45,4,1.74,5.87l5.87.16a6.8,6.8,0,0,1-.33-2.58C127,286,123.41,286.91,120.58,282.36Z" transform="translate(-66.95 -51.67)" style="fill:#ffb127;opacity:0.5;mix-blend-mode:multiply"/><path d="M115.65,319.64,139,318.7a1.2,1.2,0,0,0,1.13-1l3.24-15.8a1.21,1.21,0,0,0-1.24-1.45l-23.35.94a1.21,1.21,0,0,0-1.14,1l-3.23,15.81A1.21,1.21,0,0,0,115.65,319.64Z" transform="translate(-66.95 -51.67)" style="fill:#2c1e56"/><path d="M115.6,319.07l23.25-.94a.72.72,0,0,0,.68-.58l3.19-15.62a.71.71,0,0,0-.73-.87l-22.72.91a1.14,1.14,0,0,0-1.07.9L115,318.4A.57.57,0,0,0,115.6,319.07Z" transform="translate(-66.95 -51.67)" style="fill:#5148a5"/><path d="M113.76,311.12l-.17.95-.49-.07-.28,1.38-1.09-.2h0c-1.21-.21-3.35-.64-6.21-1.31-1.85-.42-4-.94-6.4-1.56-3.17-.81-5.23-2.43-5.28-2.87a18.27,18.27,0,0,1,.28-3.81c.12-.87.27-1.82.44-2.78.58-3.49,1.36-7.24,1.65-8.58a3.27,3.27,0,0,1,.07-.34l0-.18.92.36,5,1.93-.33.94-3.11,8.94a.3.3,0,0,0,0,.13.58.58,0,0,0,.39.61,78.44,78.44,0,0,1,8,3.57c2.19,1.09,4.11,2.12,5.18,2.7l.22.12a1.39,1.39,0,0,0,.77.16A2.27,2.27,0,0,0,113.76,311.12Z" transform="translate(-66.95 -51.67)" style="fill:#ed9c80"/><path d="M111.69,313.16c-1.21-.21-3.35-.65-6.21-1.31-1.85-.42-4-.94-6.4-1.56-3.17-.81-5.23-2.43-5.28-2.87a18.27,18.27,0,0,1,.28-3.81c.55-4,1.72-9.65,2.09-11.36a3.27,3.27,0,0,1,.07-.34l1.25.64-.14.61c-.4,1.84-1.62,7.44-2.18,10.7a16.63,16.63,0,0,0-.28,2.26c.06,1.64,1,1.84,2.06,2.31.64.28,4.93,1.69,8.74,2.91C108.58,312.27,111.2,313.08,111.69,313.16Z" transform="translate(-66.95 -51.67)" style="fill:#ed9c80;opacity:0.30000000000000004;mix-blend-mode:multiply"/><path d="M112.28,310.91a5.7,5.7,0,0,0,.86.13,1.19,1.19,0,0,0,.44-.08,7.08,7.08,0,0,1,2.54-1.06l-.2,1s1.58.9,2.08,1.22c0,0,.52.24.73.3s2.06-.11,2.5-.1.67.26.66.54c0,0,0,.13-.26.18l-.33,0,.5,0c.43,0,.67.26.66.54,0,0,0,.14-.27.18l-.82.11c.34,0,.54.27.53.51,0,0,0,.14-.27.18-.07,0-.43.06-.88.12a.46.46,0,0,1,.2.39s0,.13-.27.18-3.48.57-3.81.51a17.47,17.47,0,0,1-3-1.88,9.68,9.68,0,0,0-1-.48Z" transform="translate(-66.95 -51.67)" style="fill:#ed9c80"/><path d="M106.09,287c-1.3,4.5-1.88,6.86-2.1,7.77-.07.29-.1.43-.1.43a11.88,11.88,0,0,1-2-.23,12.83,12.83,0,0,1-4.52-1.8l-.33-.23a10.54,10.54,0,0,1-.85-.68,9.83,9.83,0,0,1-1.33-1.46s1.35-8.83,4.29-12.61l0,0a4.5,4.5,0,0,1,1.78-1.47,2,2,0,0,1,.29-.1,3.3,3.3,0,0,1,3.79,1.23,8.33,8.33,0,0,1,1.57,4.47A13.12,13.12,0,0,1,106.09,287Z" transform="translate(-66.95 -51.67)" style="fill:#ffc064"/><path d="M115.9,270.86a7.47,7.47,0,0,1-3.36.82,9.62,9.62,0,0,0,.12,1.48,5.15,5.15,0,0,1,.63.18c.44.15.24,1,.18,1.33a2.19,2.19,0,0,1-3,1.7c-1.35-.38-1.86-1.88-2.32-3.05-.19-.49-1.21-1-1.25-1.91,0-.29,0-.59,0-.91a9,9,0,0,1-1-.45s-.13-1.53-.17-3.61c0-.58,0-1.22,0-1.86,0-3,.35-6.39,1.41-8.11,1.33-2.15,4.8-1.79,7.21-1.22a20.37,20.37,0,0,1,2.52.76S120.14,268.65,115.9,270.86Z" transform="translate(-66.95 -51.67)" style="fill:#ed9c80"/><path d="M112.68,257.55a4.33,4.33,0,0,1-1.44,3.87c-1.86,1.5-5,2.26-5.12,4.2a3.83,3.83,0,0,0,.88,2.24,11.5,11.5,0,0,1-2.18-.22c-.1-.15-1.11-4.57-1.11-4.57s4.23-4.91,4.76-5.17A26.21,26.21,0,0,1,112.68,257.55Z" transform="translate(-66.95 -51.67)" style="fill:#d8836c"/><path d="M114.4,255.25c-2.41-.57-5.88-.93-7.21,1.22-1.06,1.72-1.37,5.13-1.41,8.11a1.78,1.78,0,0,0,0,1.86c0,2.08.17,3.61.17,3.61a9,9,0,0,0,1,.45c0,.32,0,.62,0,.91,0,.95.09,1.72.12,2.25-2.18.73-4.85,1.95-5.85,2.93a2,2,0,0,0-.29.1,4.5,4.5,0,0,0-1.78,1.47l0,0c-2.94,3.78-4.29,12.61-4.29,12.61a9.83,9.83,0,0,0,1.33,1.46c-.29,1.34-1.07,5.09-1.65,8.58a11.49,11.49,0,0,1-3-1.77,8.9,8.9,0,0,1-1.56-11.71c1.92-2.72,1.81-4.5,1.6-5.14-2.58-8.06,1-13.89,5.17-16.4a5.77,5.77,0,0,0,2.8-5c0-2.25.37-5,2.06-6.93a8.47,8.47,0,0,1,7.61-3.16,8,8,0,0,1,5.53,3.55C114.87,254.58,114.71,254.91,114.4,255.25Z" transform="translate(-66.95 -51.67)" style="fill:#2c1e56"/><path d="M108.86,272.42a1.69,1.69,0,0,1-.22.79,15.77,15.77,0,0,0-1.57.45c0-.53-.08-1.3-.12-2.25,0-.29,0-.59,0-.91a9,9,0,0,1-1-.45s-.13-1.53-.17-3.61a3.34,3.34,0,0,0,.73.91S109,269.54,108.86,272.42Z" transform="translate(-66.95 -51.67)" style="fill:#2c1e56"/><path d="M114.4,255.25c-.75.82-2.39,1.74-2.35,2.89.1,3.15-3.16,4.59-5.71,5.9a1.37,1.37,0,0,0-.56.54c0-3,.35-6.39,1.41-8.11C108.52,254.32,112,254.68,114.4,255.25Z" transform="translate(-66.95 -51.67)" style="fill:#2c1e56"/><path d="M119.34,252.05a3.59,3.59,0,0,1,.13,5.52c-1.7,1.39-4.55,2.32-9,.19-5.35-2.54-4-7-.53-6.91C116.61,252.88,117.26,250.45,119.34,252.05Z" transform="translate(-66.95 -51.67)" style="fill:#2c1e56"/><path d="M108.62,270.67s2.58,7.31-9.05,5.83c-9.73-1.23-8.08,12.4-8.08,12.4l3.67-8.21,4.5-6,2.45-2.67Z" transform="translate(-66.95 -51.67)" style="fill:#2c1e56"/></g></g></svg>